/* XPM */
static char * Help2_xpm[] = {
"22 22 139 2",
"  	c None",
". 	c #D4D0C8",
"+ 	c #D4CFC6",
"@ 	c #D4CFC5",
"# 	c #D4CFC1",
"$ 	c #D4CFBD",
"% 	c #D5CEB9",
"& 	c #D5CEB6",
"* 	c #D5CEB4",
"= 	c #D5CEB5",
"- 	c #D5CFB9",
"; 	c #D4CFC3",
"> 	c #D4CFBF",
", 	c #D5CEB1",
"' 	c #D6CDAA",
") 	c #D6CDA4",
"! 	c #D7CDA1",
"~ 	c #D7CDA0",
"{ 	c #D6CDA3",
"] 	c #D6CEA8",
"^ 	c #D6CEB0",
"/ 	c #D5CFB8",
"( 	c #D4CFC7",
"_ 	c #D4CFC4",
": 	c #C8BC9B",
"< 	c #B09B60",
"[ 	c #9C8035",
"} 	c #8E6D19",
"| 	c #87630C",
"1 	c #86620B",
"2 	c #8D6B15",
"3 	c #9E8130",
"4 	c #BDAA68",
"5 	c #D7CD9F",
"6 	c #D6CEAA",
"7 	c #D4CFC0",
"8 	c #D5CEB7",
"9 	c #856008",
"0 	c #916D0A",
"a 	c #BFA53D",
"b 	c #DBC651",
"c 	c #D8C035",
"d 	c #D5BA22",
"e 	c #D4B920",
"f 	c #D8BF33",
"g 	c #E0CD5F",
"h 	c #EBE0AA",
"i 	c #EBE6CE",
"j 	c #D6CEA9",
"k 	c #D4CFC2",
"l 	c #D4CFBB",
"m 	c #D5CEB0",
"n 	c #D4B81B",
"o 	c #D9C036",
"p 	c #F4EECC",
"q 	c #E6DDAD",
"r 	c #C3AD4C",
"s 	c #D0B424",
"t 	c #E2D068",
"u 	c #F9F7F0",
"v 	c #D6CEAD",
"w 	c #D5CFBB",
"x 	c #D6CEAC",
"y 	c #F1E8B5",
"z 	c #ECE7CC",
"A 	c #D9CC8A",
"B 	c #D3C377",
"C 	c #9F7D0E",
"D 	c #EBDF99",
"E 	c #F2EFE2",
"F 	c #D5CEB3",
"G 	c #D6CEAB",
"H 	c #D6CDA6",
"I 	c #FCFAF1",
"J 	c #DBD1A9",
"K 	c #D8CC94",
"L 	c #D7C983",
"M 	c #8A6609",
"N 	c #DBC443",
"O 	c #FDFDFB",
"P 	c #D6CEAE",
"Q 	c #D5CFBC",
"R 	c #D5CEB2",
"S 	c #D6CDA7",
"T 	c #D8CC97",
"U 	c #CFBF77",
"V 	c #866108",
"W 	c #FEFEFE",
"X 	c #D5CFBA",
"Y 	c #D6CEAF",
"Z 	c #D6CEB1",
"` 	c #B69E4D",
" .	c #8D690A",
"..	c #D6BC28",
"+.	c #D7CDA4",
"@.	c #C9B874",
"#.	c #8A670F",
"$.	c #A6840F",
"%.	c #DFCB58",
"&.	c #FCFBF7",
"*.	c #C9BD91",
"=.	c #AB924D",
"-.	c #87630B",
";.	c #936F0B",
">.	c #D1B51F",
",.	c #F2EBC2",
"'.	c #E8E3CA",
").	c #D4CFBC",
"!.	c #906D0A",
"~.	c #BFA433",
"{.	c #EDE3A6",
"].	c #EFEBD6",
"^.	c #DDC74B",
"/.	c #E7D886",
"(.	c #F1EBCB",
"_.	c #E0D7AB",
":.	c #D7CD9E",
"<.	c #FFFFFF",
"[.	c #D8CC91",
"}.	c #D8CC93",
"|.	c #D8CC98",
"1.	c #D7CD9D",
"2.	c #BCAB79",
"3.	c #8C6916",
"4.	c #BDAC77",
"5.	c #8B6916",
"6.	c #9D7B0D",
"7.	c #D2B724",
"8.	c #D7BE2F",
"9.	c #F1E8B9",
"0.	c #EAE6D5",
"a.	c #CDB019",
"b.	c #D4CFBE",
"c.	c #BBAB81",
"d.	c #CDB11A",
"e.	c #D5CEB8",
"f.	c #D4C78A",
"g.	c #D4B929",
"h.	c #D4B928",
". . . . + @ # $ % & * * = - $ # @ + . . . . ",
". . . + ; > % , ' ) ! ~ { ] ^ / > ; ( . . . ",
". . ( _ > : < [ } | 1 2 3 4 5 6 = > @ . . . ",
". . @ 7 8 9 0 a b c d e f g h i j 8 7 @ . . ",
". + k l m 9 n n o p q r s n n t u v w ; ( . ",
". @ > 8 x 9 n n y z A B C n n n D E * > @ . ",
"( ; $ F G H n n I J K L M n n n N O P Q _ . ",
"+ ; l R x x ^ F , S T U V n n n d W 6 X ; ( ",
"+ k w R Y Z = 8 = ] K `  .n n n ..W 6 - ; ( ",
"+ k w * Z F 8 8 , +.@.#.$.n n n %.&.G - ; ( ",
"+ ; l = , F = F *.=.-.;.>.n n n ,.'.Y w ; ( ",
"+ ; ).= , Z R P 9 !.~.e n n d {.].+.F $ _ ( ",
"+ ; $ & m Y Y x 9 n n ..^./.(._.:.6 & > @ ( ",
"+ ; > 8 , P v G 9 n n <.[.}.|.1.+.Y - # @ . ",
"( _ 7 - R P x G j n n <.:.:.! +.6 F l k @ . ",
". @ k $ 8 , v 2.3.3.4.S H H S 6 ^ 8 > ; + . ",
". @ ; # l & , 5.6.7.8.9.0.G v ^ & Q # _ ( . ",
". ( @ ; 7 ).8 5.a.n n 8.W Z * 8 ).# _ @ . . ",
". . ( @ ; # b.c.d.n n 8.W e.w b.# ; + ( . . ",
". . . + + _ ; 7 f.g.h.f.b.> # ; @ + ( . . . ",
". . . . . @ @ ; k # # # # k ; @ + ( . . . . ",
". . . . . ( ( ; _ _ ; ; _ _ _ @ . . . . . . "};
