/* XPM */
static char * AnimIO_xpm[] = {
"32 32 517 2",
"  	c #D3CFC7",
". 	c #D4D0C7",
"+ 	c #D4D0C8",
"@ 	c #C9CCBE",
"# 	c #98BC93",
"$ 	c #5BA75D",
"% 	c #45A049",
"& 	c #60A960",
"* 	c #9ABC94",
"= 	c #CCCDC1",
"- 	c #D6C8C0",
"; 	c #DF9C96",
"> 	c #EB605C",
", 	c #F14441",
"' 	c #EE5552",
") 	c #E28D87",
"! 	c #D7C1B9",
"~ 	c #D4CFC7",
"{ 	c #CECEC3",
"] 	c #90B98B",
"^ 	c #2D9834",
"/ 	c #078B12",
"( 	c #02890D",
"_ 	c #329938",
": 	c #99BC93",
"< 	c #D1CFC5",
"[ 	c #D4CDC5",
"} 	c #DF9791",
"| 	c #F43331",
"1 	c #FD0908",
"2 	c #FF0202",
"3 	c #FE0605",
"4 	c #F82322",
"5 	c #E57E79",
"6 	c #BEC8B4",
"7 	c #4DA250",
"8 	c #048A0F",
"9 	c #00880B",
"0 	c #00890C",
"a 	c #56A558",
"b 	c #C2CAB8",
"c 	c #D7C6BE",
"d 	c #EA625E",
"e 	c #FD0808",
"f 	c #FF0000",
"g 	c #FE0201",
"h 	c #F1423F",
"i 	c #D9B8B0",
"j 	c #B8C7AF",
"k 	c #3B9C40",
"l 	c #01890D",
"m 	c #3E9E43",
"n 	c #B9C7B0",
"o 	c #D6C3BB",
"p 	c #ED5754",
"q 	c #FE0404",
"r 	c #F43735",
"s 	c #DAB3AC",
"t 	c #00880C",
"u 	c #0B8C15",
"v 	c #60A961",
"w 	c #C5CBBA",
"x 	c #D6C7C0",
"y 	c #E96C68",
"z 	c #FC0C0C",
"A 	c #FF0505",
"B 	c #EF4B48",
"C 	c #D9BBB4",
"D 	c #9BBD96",
"E 	c #3C9D41",
"F 	c #0F8E19",
"G 	c #068B11",
"H 	c #118E1B",
"I 	c #48A04B",
"J 	c #A8C1A1",
"K 	c #D2CFC6",
"L 	c #DCA6A0",
"M 	c #F04744",
"N 	c #FC100F",
"O 	c #FE0505",
"P 	c #FD0C0C",
"Q 	c #E1918C",
"R 	c #D5CBC3",
"S 	c #B5C5AC",
"T 	c #75B074",
"U 	c #369A3C",
"V 	c #369A3B",
"W 	c #72AF71",
"X 	c #B1C4A9",
"Y 	c #D0CFC5",
"Z 	c #D2CEC8",
"` 	c #D1CDC9",
" .	c #D8B9B2",
"..	c #E67A75",
"+.	c #F43634",
"@.	c #F5312F",
"#.	c #EA6460",
"$.	c #DEA09A",
"%.	c #D5C8C0",
"&.	c #A6C09F",
"*.	c #54A556",
"=.	c #219329",
"-.	c #27962F",
";.	c #79B177",
">.	c #C5C3CB",
",.	c #A4A7D4",
"'.	c #C3C0CB",
").	c #DAB2AB",
"!.	c #EB615E",
"~.	c #F82423",
"{.	c #FB1010",
"].	c #F82120",
"^.	c #E96B67",
"/.	c #D9B6AF",
"(.	c #A5C09E",
"_.	c #459F49",
":.	c #0A8C14",
"<.	c #02890E",
"[.	c #1F9327",
"}.	c #76B075",
"|.	c #C3CAB9",
"1.	c #B7B7D0",
"2.	c #5562E8",
"3.	c #746FD5",
"4.	c #CF566E",
"5.	c #FA1112",
"6.	c #FF0101",
"7.	c #FA1615",
"8.	c #E96662",
"9.	c #D8BDB6",
"0.	c #D2D0C6",
"a.	c #098C14",
"b.	c #01880C",
"c.	c #03890E",
"d.	c #209328",
"e.	c #83B580",
"f.	c #CACDBF",
"g.	c #B6B6D0",
"h.	c #384AF0",
"i.	c #1823F0",
"j.	c #701896",
"k.	c #DA0324",
"l.	c #FD0002",
"m.	c #FE0303",
"n.	c #FE0101",
"o.	c #FA1B1A",
"p.	c #E7746F",
"q.	c #D7BFB7",
"r.	c #D2CEC9",
"s.	c #D0CCC9",
"t.	c #D0CDC9",
"u.	c #CFCCC8",
"v.	c #B3C4AC",
"w.	c #51A454",
"x.	c #098B14",
"y.	c #00880E",
"z.	c #008610",
"A.	c #008711",
"B.	c #0E8B1D",
"C.	c #2C9537",
"D.	c #0F8C1E",
"E.	c #028712",
"F.	c #2D9639",
"G.	c #8FB68F",
"H.	c #AEA5BF",
"I.	c #383FE8",
"J.	c #0019FF",
"K.	c #1417EA",
"L.	c #680F97",
"M.	c #CC0533",
"N.	c #F9090D",
"O.	c #F52F2D",
"P.	c #FA1817",
"Q.	c #F91D1C",
"R.	c #E77571",
"S.	c #D7C1BA",
"T.	c #A1A4D5",
"U.	c #7D85DE",
"V.	c #7C84DF",
"W.	c #7C85DD",
"X.	c #7891BD",
"Y.	c #509D62",
"Z.	c #108E1A",
"`.	c #008416",
" +	c #006D48",
".+	c #005C6E",
"++	c #005A71",
"@+	c #10607F",
"#+	c #3F70A8",
"$+	c #1C6389",
"%+	c #015B71",
"&+	c #045C74",
"*+	c #2E6796",
"=+	c #6055BB",
"-+	c #2423E5",
";+	c #0D18F2",
">+	c #5411AB",
",+	c #C11F51",
"'+	c #E17F7E",
")+	c #FC1211",
"!+	c #F82221",
"~+	c #E48681",
"{+	c #D5C7BF",
"]+	c #606CE6",
"^+	c #1128FA",
"/+	c #0D25FA",
"(+	c #0D34D9",
"_+	c #0D6374",
":+	c #06851E",
"<+	c #008315",
"[+	c #00645B",
"}+	c #0034C6",
"|+	c #0021EE",
"1+	c #0020F0",
"2+	c #0221F1",
"3+	c #0923F8",
"4+	c #0522F5",
"5+	c #0321F2",
"6+	c #0A1DF5",
"7+	c #0419FB",
"8+	c #001AFF",
"9+	c #0B19F5",
"0+	c #4E28C3",
"a+	c #A88DBC",
"b+	c #D4AEAD",
"c+	c #EC5A57",
"d+	c #FC0F0E",
"e+	c #FF0403",
"f+	c #F52E2C",
"g+	c #E28C87",
"h+	c #5865E7",
"i+	c #041DFD",
"j+	c #0029DD",
"k+	c #005877",
"l+	c #007F1F",
"m+	c #008514",
"n+	c #006559",
"o+	c #0032C9",
"p+	c #001CFB",
"q+	c #091EFA",
"r+	c #3E4CED",
"s+	c #9B9DD3",
"t+	c #D7ABA8",
"u+	c #F04A47",
"v+	c #F62F2D",
"w+	c #E18F8A",
"x+	c #5D69E1",
"y+	c #0523F1",
"z+	c #004B92",
"A+	c #007E22",
"B+	c #008710",
"C+	c #006E47",
"D+	c #0037BF",
"E+	c #021BFC",
"F+	c #1E31E7",
"G+	c #8187CD",
"H+	c #CDC6C4",
"I+	c #DDA29C",
"J+	c #F14341",
"K+	c #FD0909",
"L+	c #717ADB",
"M+	c #0B26F4",
"N+	c #0042A5",
"O+	c #00782F",
"P+	c #007042",
"Q+	c #003DB0",
"R+	c #001DF5",
"S+	c #0019FE",
"T+	c #011AFE",
"U+	c #011AFC",
"V+	c #051BF7",
"W+	c #2A21CB",
"X+	c #7A58A2",
"Y+	c #BCB4BC",
"Z+	c #D4CCC4",
"`+	c #DEA29B",
" @	c #F14542",
".@	c #E1938D",
"+@	c #848BD8",
"@@	c #2034EA",
"#@	c #1938C9",
"$@	c #1D5E75",
"%@	c #1E5290",
"&@	c #1D35CF",
"*@	c #152DD2",
"=@	c #0F2CCD",
"-@	c #0C2FCA",
";@	c #0A30C8",
">@	c #1034BD",
",@	c #1E3BB6",
"'@	c #3142C5",
")@	c #3543C8",
"!@	c #3947CC",
"~@	c #4250D4",
"{@	c #3B4BDC",
"]@	c #1128F4",
"^@	c #0C1CEE",
"/@	c #431EAC",
"(@	c #A4184E",
"_@	c #DB4E53",
":@	c #D7BBB4",
"<@	c #D5CDC5",
"[@	c #DCA7A1",
"}@	c #E0948F",
"|@	c #D7C4BC",
"1@	c #B4B4C6",
"2@	c #8E92C3",
"3@	c #8F92B7",
"4@	c #9399A5",
"5@	c #9397A9",
"6@	c #838FA1",
"7@	c #3B7661",
"8@	c #166B41",
"9@	c #0E713A",
"0@	c #0A7337",
"a@	c #0A7236",
"b@	c #0D7431",
"c@	c #35834B",
"d@	c #93A39D",
"e@	c #AEACB5",
"f@	c #B2B0B8",
"g@	c #BAB8C0",
"h@	c #A2A4CB",
"i@	c #3244EF",
"j@	c #021BFB",
"k@	c #1B1FDB",
"l@	c #631E8A",
"m@	c #C21031",
"n@	c #F50306",
"o@	c #F52C2B",
"p@	c #DCA7A0",
"q@	c #D4CEC6",
"r@	c #D1CDC5",
"s@	c #D2CEC6",
"t@	c #A1BD9A",
"u@	c #299530",
"v@	c #02880D",
"w@	c #209428",
"x@	c #B8AEC8",
"y@	c #4044DE",
"z@	c #311FC0",
"A@	c #8A1963",
"B@	c #DB0C1B",
"C@	c #FB0202",
"D@	c #FB1413",
"E@	c #E4837E",
"F@	c #D5CCC4",
"G@	c #CDCDC2",
"H@	c #058A10",
"I@	c #66AB66",
"J@	c #C8CCBD",
"K@	c #C88998",
"L@	c #892C78",
"M@	c #AE1440",
"N@	c #ED080E",
"O@	c #FA1111",
"P@	c #FE0909",
"Q@	c #EE514E",
"R@	c #D8BCB5",
"S@	c #B2C4A9",
"T@	c #419E45",
"U@	c #038A0E",
"V@	c #138F1D",
"W@	c #1D9225",
"X@	c #319937",
"Y@	c #D3D0C7",
"Z@	c #D9B9B2",
"`@	c #E95050",
" #	c #EA0B13",
".#	c #F80204",
"+#	c #FD0C0B",
"@#	c #F04846",
"##	c #F72827",
"$#	c #F82220",
"%#	c #E1928C",
"&#	c #73AF71",
"*#	c #128E1B",
"=#	c #92B98D",
"-#	c #439F48",
";#	c #61A962",
">#	c #C3C3B2",
",#	c #FA1A19",
"'#	c #E28883",
")#	c #ED5653",
"!#	c #FE0706",
"~#	c #EF4D4A",
"{#	c #9DBD97",
"]#	c #2E9835",
"^#	c #0A8C15",
"/#	c #63AA63",
"(#	c #BEC9B4",
"_#	c #76B074",
":#	c #229329",
"<#	c #97976B",
"[#	c #EF3D38",
"}#	c #FD0505",
"|#	c #D9B7B0",
"1#	c #E38681",
"2#	c #FA1918",
"3#	c #FA1716",
"4#	c #E57D78",
"5#	c #D5C8C1",
"6#	c #BDC8B3",
"7#	c #54A557",
"8#	c #088B13",
"9#	c #A1BE9A",
"0#	c #AEC3A6",
"a#	c #038A0F",
"b#	c #05890F",
"c#	c #536F1C",
"d#	c #D81C0A",
"e#	c #EF4E4B",
"f#	c #FF0302",
"g#	c #F33735",
"h#	c #DDA7A0",
"i#	c #CDCEC2",
"j#	c #85B682",
"k#	c #1B9123",
"l#	c #73AF72",
"m#	c #CECEC2",
"n#	c #1A9123",
"o#	c #187B0A",
"p#	c #923A05",
"q#	c #F40601",
"r#	c #FD0B0A",
"s#	c #EB5F5B",
"t#	c #D8BFB7",
"u#	c #E0938D",
"v#	c #F82524",
"w#	c #ADC3A5",
"x#	c #3D9D42",
"y#	c #058A11",
"z#	c #47A14B",
"A#	c #B3C5AB",
"B#	c #55A557",
"C#	c #02870B",
"D#	c #3E6709",
"E#	c #C62004",
"F#	c #F33431",
"G#	c #D4CFC6",
"H#	c #EB6561",
"I#	c #F72524",
"J#	c #E1938E",
"K#	c #C4CBBA",
"L#	c #67AB67",
"M#	c #0E8D18",
"N#	c #22942A",
"O#	c #90B98C",
"P#	c #9BBA92",
"Q#	c #29902A",
"R#	c #0D820B",
"S#	c #715A15",
"T#	c #D27E6F",
"U#	c #D6C7BF",
"V#	c #DDA6A0",
"W#	c #F43533",
"X#	c #FE0606",
"Y#	c #DAB6AF",
"Z#	c #97BB92",
"`#	c #26952D",
" $	c #01890C",
".$	c #0B8C16",
"+$	c #61A961",
"@$	c #CDA597",
"#$	c #746C2A",
"$$	c #0F800B",
"%$	c #24861D",
"&$	c #95AE82",
"*$	c #D1CFC6",
"=$	c #E67772",
"-$	c #FB1716",
";$	c #D5C9C1",
">$	c #0D8D17",
",$	c #349A3A",
"'$	c #D5CAC2",
")$	c #E47B76",
"!$	c #C92E14",
"~$	c #446509",
"{$	c #03860B",
"]$	c #70AE6F",
"^$	c #CBCDC0",
"/$	c #DAB2AC",
"($	c #F04745",
"_$	c #FE0504",
":$	c #ED5551",
"<$	c #9FBE99",
"[$	c #349A39",
"}$	c #03890F",
"|$	c #148F1E",
"1$	c #7AB278",
"2$	c #CACCBF",
"3$	c #D5CEC6",
"4$	c #DDA59E",
"5$	c #E84942",
"6$	c #983F0D",
"7$	c #1C790A",
"8$	c #9ABC95",
"9$	c #E28E89",
"0$	c #FE0202",
"a$	c #F62A28",
"b$	c #E18D88",
"c$	c #8FB98B",
"d$	c #4DA350",
"e$	c #D34E3C",
"f$	c #5E6316",
"g$	c #369737",
"h$	c #D8BFB8",
"i$	c #F72927",
"j$	c #E67B76",
"k$	c #D6C5BD",
"l$	c #A7C1A0",
"m$	c #D0CEC4",
"n$	c #DB9C94",
"o$	c #AE9272",
"p$	c #9CB992",
"q$	c #DBACA5",
"r$	c #D7BFB8",
"  . + + + + +   + @ # $ % & * = + + + + + - ; > , ' ) ! + + + + ",
"+ + + + . ~ ~ + { ] ^ / ( / _ : < + + + [ } | 1 2 3 4 5 -   +   ",
". + + +   + +   6 7 8 9 0 0 / a b +   + c d e f f f g h i . + + ",
"+ + +     +   + j k 9 9 0 0 l m n + . + o p q f f f f r s + + + ",
"+ . + . + + + + b a / 0 t 0 u v w + + + x y z f f f A B C + + + ",
"+ + ~ + + + + + < D E F G H I J K + + + ~ L M N O P | Q R + + + ",
"+   + + +     + < S T U V W X Y + Z ` ~ ~  ...+.@.#.$.%.+ + + ~ ",
"+ . + + + ~ + Y &.*.=.H -.;.b +   >.,.'.).!.~.{.].^./.~ + + + + ",
"+ + + +   + Y (._.:.9 0 <.[.}.|.+ 1.2.3.4.5.f f 6.7.8.9.+ + .   ",
"+ +   + + 0.&.% a.9 9 b.c.( d.e.f.g.h.i.j.k.l.6.m.n.o.p.q.+ + + ",
"r.s.t.s.u.v.w.x.y.z.A.B.C.D.E.F.G.H.I.J.K.L.M.N.O.P.2 Q.R.S.  . ",
"T.U.V.W.X.Y.Z.`. +.+++@+#+$+%+&+*+=+-+J.J.;+>+,+'+#.)+6.!+~+{++ ",
"]+^+/+(+_+:+<+[+}+|+1+2+3+4+1+1+5+6+7+8+J.8+9+0+a+b+c+d+e+f+g+{+",
"h+i+j+k+l+m+n+o+p+J.8+J.J.8+8+8+J.8+J.8+J.J.8+q+r+s+t+u+1 q v+w+",
"x+y+z+A+B+C+D+p+J.8+8+J.J.8+J.8+J.8+8+8+J.J.J.E+F+G+H+I+J+1 K+> ",
"L+M+N+O+P+Q+R+8+S+S+J.T+E+E+E+E+U+U+S+8+J.J.V+W+X+Y+  Z+`+ @O..@",
"+@@@#@$@%@&@*@=@-@;@;@>@,@'@)@!@~@{@]@8+S+^@/@(@_@:@+ + <@[@}@|@",
"1@2@3@4@5@6@7@8@9@0@a@b@c@d@e@f@g@h@i@j@k@l@m@n@o@p@+ + + q@<@+ ",
"  r@r@s@r@t@u@v@b.0 t t w@: K + + x@y@z@A@B@C@f D@E@F@+ + + + + ",
"+ . + + G@;.Z.9 c.F H@9 x.I@J@+ F@K@L@M@N@O@P@f O Q@R@+ + +   + ",
"+ . + + S@T@U@9 V@7 W@0 l X@(.Y@Z@`@ #.#+#@###6.f $#%#Z++ + + + ",
"+ + + @ &#*#9 0 X@=#-#<.9 u ;#>#E@,#f f $#'#)#3 f !#~#/.+ + . + ",
"+ + < {#]#( 0 ^#/#(#_#Z.t 9 :#<#[#m.f }#Q@|#1#2#f f 3#4#5#+ . + ",
"+ + 6#7#8#9 ( ]#9#0.0#m a#t b#c#d#f f $#w+[ /.e#!#f f#g#h#~ + + ",
"+ i#j#k#9 0 H l#@ + m#j#n#0 9 o#p#q#r#s#t#+ [ u#v#6.f z #.S.+ + ",
"+ w#x#a#t y#z#A#    + 6#B#8#0 C#D#E#F#I+G#+ + S.H#z f 6.I#J#<@  ",
"K#L#M#9 t N#O#Y + + + < P#Q#b.t R#S#T#U#+ +   ~ V#W#2 f X#~#Y#  ",
"Z#`# $0 .$+$b   + + + ~ @$#$$$0  $%$&$*$+ + + + x =$D@f f -$5 ;$",
"&#>$0 ( ,$(.Y@+ + + + '$)$!$~${$t .$]$^$+ + + + + /$($_$f X#:$9.",
"<$[$}$|$1$2$+ + + + + 3$4$5$6$7$8 X@8$< + + + + + F@9$].0$a$b$;$",
"^$c$,$d$S . + + + ~ + + <@$.e$f$g$c$^$+ + + . . + + h$> i$j$k$+ ",
"  ^$<$l$m$. + +   + + . + '$n$o$p$^$. + + ~ + + ~ . q@q$.@r$+ + "};
