/* XPM */
static char * AnimIOTitle_xpm[] = {
"150 17 386 2",
"  	c None",
". 	c #D4D0C8",
"+ 	c #D3D0C7",
"@ 	c #D4CFC7",
"# 	c #D3D0C8",
"$ 	c #D3CFC7",
"% 	c #D3CFC6",
"& 	c #D2CEC7",
"* 	c #D2CEC6",
"= 	c #D1CEC6",
"- 	c #D1CDC5",
"; 	c #D1CCC5",
"> 	c #D1CDC4",
", 	c #D0CCC4",
"' 	c #CFCCC4",
") 	c #CFCBC4",
"! 	c #CFCBC3",
"~ 	c #CECBC3",
"{ 	c #CFCAC2",
"] 	c #CECAC3",
"^ 	c #CECAC2",
"/ 	c #CEC9C2",
"( 	c #CDC9C1",
"_ 	c #CCC9C1",
": 	c #CDC8C1",
"< 	c #CCC8C0",
"[ 	c #CBC7C0",
"} 	c #CBC7BF",
"| 	c #CBC6BF",
"1 	c #CAC6BF",
"2 	c #CAC7BE",
"3 	c #CAC6BE",
"4 	c #C9C5BE",
"5 	c #C9C5BD",
"6 	c #C9C6BE",
"7 	c #C8C5BD",
"8 	c #C8C5BC",
"9 	c #C7C4BC",
"0 	c #C7C3BC",
"a 	c #C7C3BB",
"b 	c #C6C3BB",
"c 	c #C7C2BA",
"d 	c #C6C2BB",
"e 	c #C6C2BA",
"f 	c #C5C1BA",
"g 	c #C5C2B9",
"h 	c #C4C1BA",
"i 	c #C5C1B9",
"j 	c #C4C1B9",
"k 	c #C4C0B9",
"l 	c #C3C0B8",
"m 	c #C3BFB9",
"n 	c #C3BFB8",
"o 	c #C3BFB7",
"p 	c #C2BFB7",
"q 	c #C2BEB7",
"r 	c #C1BEB7",
"s 	c #C2BDB7",
"t 	c #C1BEB6",
"u 	c #C1BDB6",
"v 	c #C0BDB6",
"w 	c #C0BDB5",
"x 	c #C0BCB4",
"y 	c #BFBBB5",
"z 	c #BFBCB5",
"A 	c #BFBBB4",
"B 	c #BFBBB3",
"C 	c #BEBBB3",
"D 	c #BDBAB3",
"E 	c #BEBAB3",
"F 	c #BDBAB2",
"G 	c #BDB9B2",
"H 	c #BDB8B2",
"I 	c #BCB8B2",
"J 	c #BCB8B1",
"K 	c #BBB8B1",
"L 	c #BBB8B0",
"M 	c #BBB7B0",
"N 	c #BAB7B0",
"O 	c #B9B6AF",
"P 	c #BAB6AF",
"Q 	c #B9B5AF",
"R 	c #B8B5AE",
"S 	c #B9B5AD",
"T 	c #B7B4AD",
"U 	c #B8B4AD",
"V 	c #B7B4AC",
"W 	c #B7B3AC",
"X 	c #B6B3AC",
"Y 	c #B6B2AC",
"Z 	c #B5B2AB",
"` 	c #B5B2AA",
" .	c #B5B1AA",
"..	c #B4B0AA",
"+.	c #B3B1A9",
"@.	c #B3B0A9",
"#.	c #B3AFA8",
"$.	c #B2AFA8",
"%.	c #B1AFA8",
"&.	c #B1AEA8",
"*.	c #B1AEA7",
"=.	c #B0AEA6",
"-.	c #B0ADA6",
";.	c #B1ADA6",
">.	c #AFACA6",
",.	c #D2CFC7",
"'.	c #D2CDC6",
").	c #D2CDC5",
"!.	c #D0CCC5",
"~.	c #CECBC2",
"{.	c #CDCAC2",
"].	c #CCC7C0",
"^.	c #CBC8C0",
"/.	c #C8C4BD",
"(.	c #C9C4BD",
"_.	c #C8C4BC",
":.	c #C5C2BA",
"<.	c #C5C0B9",
"[.	c #C4C0B8",
"}.	c #C2BFB8",
"|.	c #C0BEB6",
"1.	c #BFBCB4",
"2.	c #BEBBB4",
"3.	c #BCB9B2",
"4.	c #BBB7B1",
"5.	c #BAB6B0",
"6.	c #B9B6AE",
"7.	c #B9B5AE",
"8.	c #B7B3AD",
"9.	c #B6B3AB",
"0.	c #B4B1AB",
"a.	c #B4B1AA",
"b.	c #B4B1A9",
"c.	c #B4B0A9",
"d.	c #B3AFA9",
"e.	c #B2AEA8",
"f.	c #B2AFA7",
"g.	c #B2AEA7",
"h.	c #B0ACA6",
"i.	c #D2CEC5",
"j.	c #D0CDC5",
"k.	c #CEC9C1",
"l.	c #CCC8C1",
"m.	c #CAC7BF",
"n.	c #C9C6BD",
"o.	c #C8C3BC",
"p.	c #C5C0BA",
"q.	c #C3C0B9",
"r.	c #C0BCB5",
"s.	c #BCB9B1",
"t.	c #BBB7AF",
"u.	c #B8B5AD",
"v.	c #B7B5AD",
"w.	c #B6B2AB",
"x.	c #B4B2AB",
"y.	c #AAA7A1",
"z.	c #AAA7A0",
"A.	c #B3B0A8",
"B.	c #B1ADA7",
"C.	c #B0ADA7",
"D.	c #D4CFC8",
"E.	c #D3CEC7",
"F.	c #CFCAC3",
"G.	c #CDCAC3",
"H.	c #CDCAC1",
"I.	c #C9C5BC",
"J.	c #C7C2BB",
"K.	c #C2BEB6",
"L.	c #B0ADA5",
"M.	c #AFADA6",
"N.	c #BDBBB3",
"O.	c #ADAAA4",
"P.	c #ADA9A4",
"Q.	c #B5B2AC",
"R.	c #B6B2AA",
"S.	c #B5B1AB",
"T.	c #B4B2AA",
"U.	c #A19E98",
"V.	c #A09E97",
"W.	c #B1AFA7",
"X.	c #A7A59E",
"Y.	c #A7A59D",
"Z.	c #D0CDC4",
"`.	c #D0CCC3",
" +	c #D0CBC4",
".+	c #CDC9C2",
"++	c #CBC8C1",
"@+	c #CBC6BE",
"#+	c #C7C4BD",
"$+	c #C7C3BD",
"%+	c #C5C2BB",
"&+	c #C3BEB7",
"*+	c #C1BCB6",
"=+	c #C0BCB6",
"-+	c #ACA8A2",
";+	c #A9A7A0",
">+	c #ADA9A2",
",+	c #AFABA5",
"'+	c #B8B4AC",
")+	c #B0ACA5",
"!+	c #C2BEB8",
"~+	c #AEABA5",
"{+	c #AFACA5",
"]+	c #B8B4AE",
"^+	c #B5B3AC",
"/+	c #B5B0AA",
"(+	c #989590",
"_+	c #97958F",
":+	c #9E9B95",
"<+	c #D1CEC5",
"[+	c #D1CDC6",
"}+	c #D1CCC4",
"|+	c #CCC9C2",
"1+	c #CAC5BE",
"2+	c #C9C4BC",
"3+	c #C6C3BC",
"4+	c #C6C1BA",
"5+	c #C4C0BA",
"6+	c #C1BDB5",
"7+	c #A29F99",
"8+	c #ACA7A1",
"9+	c #A09D97",
"0+	c #A4A19A",
"a+	c #A8A59E",
"b+	c #AEACA5",
"c+	c #A8A59F",
"d+	c #A6A29C",
"e+	c #B8B3AC",
"f+	c #B8B6AF",
"g+	c #ABA8A1",
"h+	c #9B9993",
"i+	c #A4A09A",
"j+	c #ACA9A4",
"k+	c #ACA9A2",
"l+	c #ABA8A2",
"m+	c #AAA6A0",
"n+	c #9A9892",
"o+	c #A29E98",
"p+	c #8F8C86",
"q+	c #95928C",
"r+	c #A8A49F",
"s+	c #A4A19B",
"t+	c #A19F98",
"u+	c #9B9992",
"v+	c #97948E",
"w+	c #9F9C95",
"x+	c #95928D",
"y+	c #D3CEC6",
"z+	c #D0CBC3",
"A+	c #C8C5BE",
"B+	c #928F89",
"C+	c #A3A099",
"D+	c #A7A49F",
"E+	c #8F8D88",
"F+	c #A7A49E",
"G+	c #9B9892",
"H+	c #A3A09A",
"I+	c #A39F9A",
"J+	c #999690",
"K+	c #A9A59F",
"L+	c #8E8C86",
"M+	c #8A8782",
"N+	c #AAA6A1",
"O+	c #AEABA4",
"P+	c #95938D",
"Q+	c #AFADA5",
"R+	c #CDC8C0",
"S+	c #C8C4BE",
"T+	c #C7C4BB",
"U+	c #C6C2BC",
"V+	c #A2A099",
"W+	c #93908A",
"X+	c #918E88",
"Y+	c #AEAAA4",
"Z+	c #898681",
"`+	c #A5A29C",
" @	c #ACA9A1",
".@	c #A6A39D",
"+@	c #87847F",
"@@	c #A4A09B",
"#@	c #A7A39E",
"$@	c #85837E",
"%@	c #96938E",
"&@	c #8C8984",
"*@	c #9A9791",
"=@	c #9A9690",
"-@	c #86847F",
";@	c #96948E",
">@	c #A19E97",
",@	c #9D9A95",
"'@	c #A39F99",
")@	c #94918B",
"!@	c #827F7A",
"~@	c #918F89",
"{@	c #97938E",
"]@	c #96938D",
"^@	c #CFCCC3",
"/@	c #CECAC1",
"(@	c #C3C0B7",
"_@	c #908D88",
":@	c #9C9993",
"<@	c #A3A19A",
"[@	c #9D9A94",
"}@	c #9D9A93",
"|@	c #A2A09A",
"1@	c #A19D98",
"2@	c #8E8A85",
"3@	c #98958F",
"4@	c #817E7A",
"5@	c #9B9893",
"6@	c #A29E99",
"7@	c #A09C97",
"8@	c #C9C6BF",
"9@	c #C6C1BB",
"0@	c #C3BEB8",
"a@	c #A29F9A",
"b@	c #989690",
"c@	c #95918C",
"d@	c #97948F",
"e@	c #A09D96",
"f@	c #AFACA4",
"g@	c #94918C",
"h@	c #9C9A95",
"i@	c #8E8B87",
"j@	c #8F8C87",
"k@	c #83817B",
"l@	c #8D8B85",
"m@	c #9E9C95",
"n@	c #9F9D96",
"o@	c #D3CFC8",
"p@	c #A9A69F",
"q@	c #9F9C96",
"r@	c #B4AFA9",
"s@	c #B0AEA7",
"t@	c #B0ACA7",
"u@	c #B9B7AF",
"v@	c #ADABA3",
"w@	c #9D9994",
"x@	c #999590",
"y@	c #D4D0C7",
"z@	c #CAC7C0",
"A@	c #C6C3BA",
"B@	c #ACA9A3",
"C@	c #B2AEA9",
"D@	c #BAB7AF",
"E@	c #BDB9B3",
"F@	c #B1ADA8",
"G@	c #AEACA4",
"H@	c #A4A29B",
"I@	c #AAA79F",
"J@	c #AFABA4",
"K@	c #A19D97",
"L@	c #9E9C96",
"M@	c #9F9B95",
"N@	c #A9A5A0",
"O@	c #A19F99",
"P@	c #999791",
"Q@	c #A5A19B",
"R@	c #A7A49D",
"S@	c #D2CFC6",
"T@	c #BEBAB4",
"U@	c #B8B6AE",
"V@	c #B7B4AE",
"W@	c #B3B1AA",
"X@	c #CCC9C0",
"Y@	c #C8C3BD",
"Z@	c #C1BCB5",
"`@	c #C0BBB4",
" #	c #BFBAB4",
".#	c #B8B5AF",
"+#	c #B8B3AD",
"@#	c #B5B3AB",
"##	c #CAC5BD",
"$#	c #C7C2BC",
"%#	c #B3B0AA",
"&#	c #B2AFA9",
"*#	c #B1AEA6",
"=#	c #CBC8BF",
"-#	c #C9C4BE",
";#	c #C6C4BC",
">#	c #C4BFB9",
",#	c #BAB8B0",
"'#	c #B9B6B0",
")#	c #C5C1BB",
"!#	c #BEBAB2",
"~#	c #B6B4AC",
". . . . . . . . . . + @ # $ $ % & * * * = - ; > ; , ' ) , ! ~ { ] ^ / ( ( _ : _ < < < [ } | 1 | 2 3 4 5 6 5 7 8 8 9 0 0 0 a b c d e f g h i j k k l m n n o p q r s t u v v w w x y z A B C C C D E F G G H I I J K L M N N O P O O Q R S R T U T V W X X X Y Z Z ` Z  . ...+.+.@.@.#.$.$.$.%.&.*.*.=.-.;.>.",
". . . . . . . . . . . $ # $ ,.& & * '.'.).- - !.!., , ! ' ! ~ ^ ~.^ {.{.( _ ( < < ].^.^.} } } 1 1 3 3 4 5 4 /.(._.0 9 0 b a a d e :.f f f h <.j k [.n n p o }.q q r u |.u w w z 1.z A A A 2.2.C E D F G 3.I J J K L 4.M M 5.P 5.O 6.7.R 7.R T U T 8.8.X Y X 9.Z Z Z 0.a. .b...c.d.@.#.$.#.e.f.g.*.*.*.;.-.h.",
". . . . . . . . . . + . @ $ $ % & * * i.- - > j., ' , ' ! ! ! ] ~.] ^ k.( ( ( < < l.< [ } } 1 m.3 3 3 n.6 7 5 /._.o.o.a 0 0 b d d d f f j <.p.k q.[.n l n n p q q t u u u v r.w 1.z A A A 2.C C D F F G H 3.s.J K M L N 5.t.5.P O O Q 7.7.u.v.U T 8.8.X X X w.w.Z Z x.0.a.y.y.z.@.d.A.#.$.$.*.*.B.*.C.-.h.h.",
". . . . . . . . . . . $ D.$ E.E.* * * ).- - j.; , !.' , ! ! ] F.{ G.H.k.( ( _ : l.^.].[ } m.m.1 1 3 4 5 4 5 7 I././.9 a a a J.d d e :.f f <.k j q.q.n n n p p q q K.u u u v w.#.#.4.A O L.M.b.N.N C.O.h.+.f.g.X K R e.*.%.O.y.P.W O 6.7.R R u.T U T V W X w.Q.Z R.S.T. .a.U.. V.d.d.@.$.e.$.W.*.X.X.Y.B.h.h.",
". . . . . . . . . . # . @ $ $ $ * * '.* - j.!.Z., , `. +! ! ~ ] ~ ^ / {..+.+l.l.l.++^.[ m.[ } @+3 3 3 5 5 7 5 /./.#+$+0 a b b e %+e :.f f i k k k q.l o }.}.&+q K.t t u *+=+-+. e.a.A e.Y . ;+E A.;.. B.>+n 5.,+'+)+X !+y.~+. {+>.O 7.7.U ]+]+T T 8.V X 9.9.^+w.Z Z  .a./+(+. _+@.@.d.$.$.e.*.&.:+. :+;.-.L.",
". . . . . . . . . . . $ $ $ $ * E.* '.<+[+- }+Z., , ) ! ) ] ! ] ^ ^ ( .+( |+l._ < ].^.[ ^.} | @+3 3 1+6 5 7 7 2+_./._.9 3+a d d d 4+f f i 5+k k k l n n n }.q p q t u v w 6+7+. [.8+u.z.d . 9+J y.}.K n 0+a+d b+X.O.i c+7+K.N q d+e+f+Q 7.d.g+V.h+i+i+j+k+X l+l+m+l+U.n+o+p+. q+r+s+t+t+u+v+w+X.x+. x+;.-.h.",
". . . . . . . . . . D.+ $ ,.,.y+% * = = [+j.; , !.,  + +z+! F.] ^ ^ .+.+( : _ _ l.< ^.[ } m.1 1 3 3 4 6 5 A+5 /./.0 0 a a b a e :.%+:.f f 5+h k k l l l o q p p q u t u u v 7+. @.c.a+w.{+. 9+W z.3 B+1 z.O.g+b C+:.g+>+D+6 E+3 F+e.6.7.]+z.U ] . . G+. H+X I+. J+K+9 $ . L+. M+N+] O+..^ . . X.P+. q+-.-.Q+",
". . . . . . . . . . # $ @ % E.% * * * [+- - ; j.j., `.) ! ~ ! ^ ^ ^ / ( .+( : R+< l.[ [ [ } 1 1 3 1+6 6 5 S+/._./.9 0 T+a U+b b d :.:.f h 5+k l [.q.l n p o q q q u t u u v V+. W+5 x+3 X+. V.Y+R d+Z+`+U  @B..@= F+*.z.T s++@@@X ;+6.R U #@- 9+$@%@&@. *@X =@. -@/.g+;@>@p+. ,@4 '@)@- :+!@~@C+{@* ]@-.-.)+",
". . . . . . . . . . . @ @ $ $ y+* * * [+- - !.; !.' ^@) ! ] F.{ ~.^ k./@( _ ( _ < ].} [ m.} | 1 1 3 4 5 5 7 7 /./.#+_.0 0 b d d :.e f :.i i j k [.[.n (@o o q p r u u v u *+7+. _@p X u p+. :@d+! . . . ! <@w.[@. }@S.|@! . . . ! 1@b.R ]+g+$.d , O 2@. 3@~+x+. 4@,.q+l+d.(+. * V.5@6@{+f ) W <@9+< 7@C.h.h.",
". . . . . . . . . . @ # $ ,.,.* & * * = - j.; , , ' ' , ! ! ^ ^ ] {./ .+( ( ( l.< ].].^.} m.| m.3 8@3 4 4 7 7 /./._.9 a a b d d e 9@f f f j j k k q.n }.}.0@p q q t t u u w a@. b@;.. ;.b@. c@$.r d@e@;@u *.-.:+. :+f@;.6+g@h@g@w -.O.7.R l+*@-@_@- i@! 9+G+F+. -@/.g+v+U.j@. v+^ y._+~@k@l@- m@9+n@n@C.h.>.",
". . . . . . . . . . o@@ $ ,.% $ * * * = - ; j., ,  +' `.! ! ^ F.^ {..+H.( .+_ < l.< [ [ m.m.m.1 3 6 4 5 7 7 /./._._.9 0 0 b d e d :.e f <.5+k [.l [.l n }.0@q K.r u t u w w k+. p@A.-.#.K+. q@} a.r@F #.c.1 s@a+. F+)+1 #.t@u@h.%.3 v@R R Y+. . ! ]+w@e.! , *.. x@m+/.$ . (+. )@`+( #.. . ] Y <@F+. Y.-.-.h.",
". . . . . . . . . . y@$ $ $ E.% * * '.[+- j.Z.!.!., ^@^@) F.! ] ] {.{.( ( : ( R+< l.^.[ } z@3 1 6 4 6 1+A+5 7 _.9 _.o.T+a b A@e e :.:.i f i k k n q.n n }.!+q K.q t u u u v w.` S.z A 2. ...B@d.C@D@E@P &.F@a.*.g.B.%.>.>.V O X G@~+F@R R Y+H@h+V.I@J@;+K@L@M@F+N@l+O@P@>@U.z.F+p@s+,@h+v+5@Q@B@X.F+R@;.)+h.",
". . . . . . . . . D.. $ $ $ y+S@* * <+- - - - !.,  +) ) ! ] ! ^ ^ {.{.( ( ( l.< ^.< [ [ } } m.m.1 1+4 4 7 /././._._.9 a a 3+b d %+f f f j k k k k [.n }.}.q p q r q t u u w =+r.1.z 1.A 2.T@E E F G G 3.G I K J L 4.N M 5.5.u@P Q Q U@7.U ]+V@T T T X W 9.w.9.w.Z  .a. .a.W@@.@.@.@.#.$.$.$.*.g.*.B.*.-.-.h.",
". . . . . . . . . . + # $ E.$ * S@= * - - - - , , ' ' ^@! ! ] ^ ] / H.( .+: X@< l.^.^.[ } } @+2 3 8@6 4 5 7 /.7 Y@9 9 0 a a J.d e e f i i j k k l n n }.p p p r r u u w Z@w w x `@1.1.A  #2.E D F F G G 3.J J K 4.4.N N N 5.P O O .#7.7.U u.T +#W W W X X w.@#Z ` Z a.a...a.c.@.d.A.$.$.$.%.e.B.*.;.-.h.-.h.",
". . . . . . . . . y@+ D.$ ,.$ ,.S@'.i.).- > ; , , , z+! ) F.~.] ^ ^ / ^ .+: X@l.< ^.].[ } m.@+2 4 3 ##5 7 5 /.8 _.#+_.0 b $#d d %+:.:.i j k k k [.q.l o }.p p K.u t t 6+v w r.z z 1.2.C C C T@D F F 3.G s.J K K L L M 5.N D@N P O O 7.R ]+U T T V W X X Y Y w.S.S.a. .a.a.%#..c.@.$.&##.e.e.*.*.*#B.-.-.-.h.",
". . . . . . . . . . y@@ $ $ $ * * ).'.= - - j.; , , ' ^@! ! F.^ {./ {.{.|+_ ( l.l.< =#} [ } 3 3 3 4 n.4 -#/.5 #+_.9 0 ;#b d a d d f e h j f j k >#>#n n p !+q q r u u u u r.r.r.A z 1.A  #E E E E G E@3.I J J K J L ,#M N '#O O P 7..#R ]+R T T T T X W X w.w.w.Z S. .a...a.@.c.@.d.@.$.f.e.*.&.*.*#C.h.M.h.",
". . . . . . . . . # . . $ y+E.S@* * - ).- !.- j., , ^@`.! F.] ] ^ ^ ( .+.+l.: l.l.[ } [ [ 1 | 1 6 4 n.n.-#7 /.7 _.0 9 9 a d d :.e )#f :.j k k k [.n n o o q q r r u u u Z@v w z z x A 2.A T@C !#!#F G 3.G I I K 4.L M N 5.u@P O Q Q 7.7.U ]+T U V W ~#X X 9.Q.Z Z S.x.0.a.%#@.@.d.#.&#e.$.g.&.&.B.-.-.C.-.h."};
