/* XPM */
static char * Help1_xpm[] = {
"22 22 88 1",
" 	c None",
".	c #D4D0C8",
"+	c #B9B5A8",
"@	c #87816B",
"#	c #5E583A",
"$	c #423A18",
"%	c #332B06",
"&	c #312A04",
"*	c #3F3815",
"=	c #605A3D",
"-	c #9F9A89",
";	c #2E2600",
">	c #393312",
",	c #6B6757",
"'	c #93928F",
")	c #878786",
"!	c #7C7C7B",
"~	c #7C7B7A",
"{	c #868685",
"]	c #9A9A99",
"^	c #B4B3AC",
"/	c #E0DDD7",
"(	c #797978",
"_	c #898988",
":	c #DDDDDC",
"<	c #DAD7D0",
"[	c #959183",
"}	c #757470",
"|	c #A6A6A6",
"1	c #EEECEA",
"2	c #D3D3D3",
"3	c #E1DFD9",
"4	c #C7C3B9",
"5	c #474128",
"6	c #C3C3C3",
"7	c #E7E4E0",
"8	c #F7F7F7",
"9	c #D6D2CB",
"0	c #D1CDC4",
"a	c #332C08",
"b	c #90908F",
"c	c #F7F6F5",
"d	c #C1BDB2",
"e	c #2F2701",
"f	c #7D7D7C",
"g	c #FDFDFD",
"h	c #8E8874",
"i	c #362F0D",
"j	c #80807F",
"k	c #FCFCFB",
"l	c #B6B1A3",
"m	c #39310D",
"n	c #4D4832",
"o	c #9D9D9C",
"p	c #F3F2F0",
"q	c #BBB6AA",
"r	c #7B755D",
"s	c #3B3415",
"t	c #767673",
"u	c #DBDBDA",
"v	c #DFDCD6",
"w	c #393211",
"x	c #676455",
"y	c #7A7A79",
"z	c #CACAC9",
"A	c #E4E2DD",
"B	c #959594",
"C	c #B4B4B3",
"D	c #DCDAD7",
"E	c #D9D5CE",
"F	c #FFFFFF",
"G	c #A09B8A",
"H	c #3C3512",
"I	c #A19C8B",
"J	c #3C3411",
"K	c #453F25",
"L	c #787774",
"M	c #838382",
"N	c #D3D3D2",
"O	c #E0DED8",
"P	c #72716D",
"Q	c #858584",
"R	c #FBFAFA",
"S	c #9E9987",
"T	c #73736F",
"U	c #B6B4AE",
"V	c #80807E",
"W	c #B7B5AF",
"......................",
"......................",
".....+@#$%&*=-........",
".....;>,')!~{]^/......",
".....;((_:<[}((|1.....",
".....;((23.45(((67....",
"......((89.0a(((bc....",
"...........de(((fg....",
"...........hi(((jk....",
"..........lmn(((op....",
"........qr%st(((uv....",
"........;wxy((fzA.....",
"........;((jBCDE......",
"........;((F..........",
".........((F..........",
".......GHHI...........",
".......JKLMNO.........",
".......JP((QR.........",
".......ST((QR.........",
"........UVVW..........",
"......................",
"......................"};
